<mxfile host="app.diagrams.net" modified="2023-10-20T15:13:14.492Z" agent="Mozilla/5.0 (Macintosh; Intel Mac OS X 10.15; rv:109.0) Gecko/20100101 Firefox/118.0" etag="PqCLiS4PVMqqiTgjpUZN" version="21.8.2" type="github">
  <diagram name="Page-1" id="TvMvOZ9mV_910rXKRIYk">
    <mxGraphModel dx="1804" dy="536" grid="1" gridSize="10" guides="1" tooltips="1" connect="1" arrows="1" fold="1" page="1" pageScale="1" pageWidth="850" pageHeight="1100" math="0" shadow="0">
      <root>
        <mxCell id="0" />
        <mxCell id="1" parent="0" />
        <mxCell id="MDHbiPIN4DShXxyYwHcX-7" style="edgeStyle=orthogonalEdgeStyle;rounded=0;orthogonalLoop=1;jettySize=auto;html=1;entryX=0;entryY=0.5;entryDx=0;entryDy=0;" parent="1" source="MDHbiPIN4DShXxyYwHcX-3" target="MDHbiPIN4DShXxyYwHcX-4" edge="1">
          <mxGeometry relative="1" as="geometry" />
        </mxCell>
        <mxCell id="MDHbiPIN4DShXxyYwHcX-13" value="1.deploy implementation" style="edgeLabel;html=1;align=center;verticalAlign=middle;resizable=0;points=[];" parent="MDHbiPIN4DShXxyYwHcX-7" vertex="1" connectable="0">
          <mxGeometry x="-0.2" y="-2" relative="1" as="geometry">
            <mxPoint x="4" y="-17" as="offset" />
          </mxGeometry>
        </mxCell>
        <mxCell id="MDHbiPIN4DShXxyYwHcX-15" style="edgeStyle=orthogonalEdgeStyle;rounded=0;orthogonalLoop=1;jettySize=auto;html=1;entryX=0;entryY=0.5;entryDx=0;entryDy=0;exitX=0.5;exitY=1;exitDx=0;exitDy=0;" parent="1" source="MDHbiPIN4DShXxyYwHcX-3" target="MDHbiPIN4DShXxyYwHcX-14" edge="1">
          <mxGeometry relative="1" as="geometry">
            <mxPoint x="-735" y="150" as="sourcePoint" />
          </mxGeometry>
        </mxCell>
        <mxCell id="MDHbiPIN4DShXxyYwHcX-16" value="&lt;div&gt;2a. deploy module&lt;/div&gt;" style="edgeLabel;html=1;align=center;verticalAlign=middle;resizable=0;points=[];" parent="MDHbiPIN4DShXxyYwHcX-15" vertex="1" connectable="0">
          <mxGeometry x="0.5135" y="-2" relative="1" as="geometry">
            <mxPoint x="-30" y="-12" as="offset" />
          </mxGeometry>
        </mxCell>
        <mxCell id="MDHbiPIN4DShXxyYwHcX-3" value="Dev" style="ellipse;whiteSpace=wrap;html=1;aspect=fixed;" parent="1" vertex="1">
          <mxGeometry x="-760" y="140" width="50" height="50" as="geometry" />
        </mxCell>
        <mxCell id="MDHbiPIN4DShXxyYwHcX-32" style="edgeStyle=orthogonalEdgeStyle;rounded=0;orthogonalLoop=1;jettySize=auto;html=1;entryX=1;entryY=1;entryDx=0;entryDy=0;exitX=0.5;exitY=1;exitDx=0;exitDy=0;" parent="1" source="MDHbiPIN4DShXxyYwHcX-4" target="MDHbiPIN4DShXxyYwHcX-3" edge="1">
          <mxGeometry relative="1" as="geometry">
            <Array as="points">
              <mxPoint x="-480" y="208" />
              <mxPoint x="-717" y="208" />
            </Array>
          </mxGeometry>
        </mxCell>
        <mxCell id="MDHbiPIN4DShXxyYwHcX-33" value="5e. transfer fee" style="edgeLabel;html=1;align=center;verticalAlign=middle;resizable=0;points=[];" parent="MDHbiPIN4DShXxyYwHcX-32" vertex="1" connectable="0">
          <mxGeometry x="0.0561" y="3" relative="1" as="geometry">
            <mxPoint x="1" y="-11" as="offset" />
          </mxGeometry>
        </mxCell>
        <mxCell id="MDHbiPIN4DShXxyYwHcX-4" value="Custom Strategy" style="rounded=1;whiteSpace=wrap;html=1;" parent="1" vertex="1">
          <mxGeometry x="-540" y="142.5" width="120" height="45" as="geometry" />
        </mxCell>
        <mxCell id="MDHbiPIN4DShXxyYwHcX-8" style="edgeStyle=orthogonalEdgeStyle;rounded=0;orthogonalLoop=1;jettySize=auto;html=1;dashed=1;" parent="1" source="MDHbiPIN4DShXxyYwHcX-6" edge="1">
          <mxGeometry relative="1" as="geometry">
            <mxPoint x="-480" y="140" as="targetPoint" />
          </mxGeometry>
        </mxCell>
        <mxCell id="MDHbiPIN4DShXxyYwHcX-9" value="Inherit from" style="edgeLabel;html=1;align=center;verticalAlign=middle;resizable=0;points=[];" parent="MDHbiPIN4DShXxyYwHcX-8" vertex="1" connectable="0">
          <mxGeometry x="0.0089" y="5" relative="1" as="geometry">
            <mxPoint x="-35" y="7" as="offset" />
          </mxGeometry>
        </mxCell>
        <mxCell id="MDHbiPIN4DShXxyYwHcX-6" value="Base Handler" style="rounded=1;whiteSpace=wrap;html=1;" parent="1" vertex="1">
          <mxGeometry x="-540" y="40" width="120" height="45" as="geometry" />
        </mxCell>
        <mxCell id="MDHbiPIN4DShXxyYwHcX-11" style="edgeStyle=orthogonalEdgeStyle;rounded=0;orthogonalLoop=1;jettySize=auto;html=1;dashed=1;" parent="1" source="MDHbiPIN4DShXxyYwHcX-10" edge="1">
          <mxGeometry relative="1" as="geometry">
            <mxPoint x="-480" y="140" as="targetPoint" />
            <Array as="points">
              <mxPoint x="-630" y="100" />
              <mxPoint x="-480" y="100" />
            </Array>
          </mxGeometry>
        </mxCell>
        <mxCell id="MDHbiPIN4DShXxyYwHcX-10" value="Aave Handler" style="rounded=1;whiteSpace=wrap;html=1;" parent="1" vertex="1">
          <mxGeometry x="-690" y="40" width="120" height="45" as="geometry" />
        </mxCell>
        <mxCell id="MDHbiPIN4DShXxyYwHcX-22" style="edgeStyle=orthogonalEdgeStyle;rounded=0;orthogonalLoop=1;jettySize=auto;html=1;entryX=0;entryY=0.5;entryDx=0;entryDy=0;" parent="1" source="MDHbiPIN4DShXxyYwHcX-14" target="MDHbiPIN4DShXxyYwHcX-21" edge="1">
          <mxGeometry relative="1" as="geometry" />
        </mxCell>
        <mxCell id="MDHbiPIN4DShXxyYwHcX-23" value="2b. deploy proxy" style="edgeLabel;html=1;align=center;verticalAlign=middle;resizable=0;points=[];" parent="MDHbiPIN4DShXxyYwHcX-22" vertex="1" connectable="0">
          <mxGeometry x="-0.2286" relative="1" as="geometry">
            <mxPoint y="-10" as="offset" />
          </mxGeometry>
        </mxCell>
        <mxCell id="MDHbiPIN4DShXxyYwHcX-14" value="Strategy Module Factory&lt;br&gt;(Beneficiary &amp;amp;&amp;nbsp;Implementation)" style="whiteSpace=wrap;html=1;rounded=1;" parent="1" vertex="1">
          <mxGeometry x="-580" y="230" width="200" height="60" as="geometry" />
        </mxCell>
        <mxCell id="MDHbiPIN4DShXxyYwHcX-24" style="edgeStyle=orthogonalEdgeStyle;rounded=0;orthogonalLoop=1;jettySize=auto;html=1;entryX=0.5;entryY=0;entryDx=0;entryDy=0;" parent="1" source="MDHbiPIN4DShXxyYwHcX-20" target="MDHbiPIN4DShXxyYwHcX-21" edge="1">
          <mxGeometry relative="1" as="geometry" />
        </mxCell>
        <mxCell id="MDHbiPIN4DShXxyYwHcX-25" value="4. enable module" style="edgeLabel;html=1;align=center;verticalAlign=middle;resizable=0;points=[];" parent="MDHbiPIN4DShXxyYwHcX-24" vertex="1" connectable="0">
          <mxGeometry x="-0.16" y="3" relative="1" as="geometry">
            <mxPoint as="offset" />
          </mxGeometry>
        </mxCell>
        <mxCell id="MDHbiPIN4DShXxyYwHcX-26" style="edgeStyle=orthogonalEdgeStyle;rounded=0;orthogonalLoop=1;jettySize=auto;html=1;entryX=1;entryY=0.5;entryDx=0;entryDy=0;exitX=1;exitY=0.5;exitDx=0;exitDy=0;" parent="1" source="MDHbiPIN4DShXxyYwHcX-20" target="MDHbiPIN4DShXxyYwHcX-21" edge="1">
          <mxGeometry relative="1" as="geometry" />
        </mxCell>
        <mxCell id="MDHbiPIN4DShXxyYwHcX-27" value="5a. call execStrategy" style="edgeLabel;html=1;align=center;verticalAlign=middle;resizable=0;points=[];" parent="MDHbiPIN4DShXxyYwHcX-26" vertex="1" connectable="0">
          <mxGeometry x="0.0564" y="-1" relative="1" as="geometry">
            <mxPoint y="-8" as="offset" />
          </mxGeometry>
        </mxCell>
        <mxCell id="MDHbiPIN4DShXxyYwHcX-30" style="edgeStyle=orthogonalEdgeStyle;rounded=0;orthogonalLoop=1;jettySize=auto;html=1;entryX=1;entryY=0.5;entryDx=0;entryDy=0;exitX=0.5;exitY=0;exitDx=0;exitDy=0;" parent="1" source="MDHbiPIN4DShXxyYwHcX-20" target="MDHbiPIN4DShXxyYwHcX-4" edge="1">
          <mxGeometry relative="1" as="geometry">
            <Array as="points">
              <mxPoint x="-195" y="110" />
              <mxPoint x="-380" y="110" />
              <mxPoint x="-380" y="165" />
            </Array>
          </mxGeometry>
        </mxCell>
        <mxCell id="MDHbiPIN4DShXxyYwHcX-31" value="5c. delegate call" style="edgeLabel;html=1;align=center;verticalAlign=middle;resizable=0;points=[];" parent="MDHbiPIN4DShXxyYwHcX-30" vertex="1" connectable="0">
          <mxGeometry x="-0.38" y="3" relative="1" as="geometry">
            <mxPoint x="-22" as="offset" />
          </mxGeometry>
        </mxCell>
        <mxCell id="MDHbiPIN4DShXxyYwHcX-20" value="User SA" style="ellipse;whiteSpace=wrap;html=1;aspect=fixed;" parent="1" vertex="1">
          <mxGeometry x="-220" y="130" width="50" height="50" as="geometry" />
        </mxCell>
        <mxCell id="MDHbiPIN4DShXxyYwHcX-28" style="edgeStyle=orthogonalEdgeStyle;rounded=0;orthogonalLoop=1;jettySize=auto;html=1;entryX=0;entryY=0.5;entryDx=0;entryDy=0;exitX=0;exitY=0.25;exitDx=0;exitDy=0;" parent="1" source="MDHbiPIN4DShXxyYwHcX-21" target="MDHbiPIN4DShXxyYwHcX-20" edge="1">
          <mxGeometry relative="1" as="geometry" />
        </mxCell>
        <mxCell id="MDHbiPIN4DShXxyYwHcX-29" value="5b. isSignatureValid" style="edgeLabel;html=1;align=center;verticalAlign=middle;resizable=0;points=[];" parent="MDHbiPIN4DShXxyYwHcX-28" vertex="1" connectable="0">
          <mxGeometry x="-0.1889" y="2" relative="1" as="geometry">
            <mxPoint y="-12" as="offset" />
          </mxGeometry>
        </mxCell>
        <mxCell id="MDHbiPIN4DShXxyYwHcX-21" value="Strategy Module" style="whiteSpace=wrap;html=1;rounded=1;" parent="1" vertex="1">
          <mxGeometry x="-270" y="230" width="150" height="60" as="geometry" />
        </mxCell>
        <mxCell id="-eRPkNMYUyGXU0NjvsWs-1" style="edgeStyle=orthogonalEdgeStyle;rounded=0;orthogonalLoop=1;jettySize=auto;html=1;entryX=0.317;entryY=0.978;entryDx=0;entryDy=0;entryPerimeter=0;" edge="1" parent="1" target="MDHbiPIN4DShXxyYwHcX-10">
          <mxGeometry relative="1" as="geometry">
            <mxPoint x="-530" y="140" as="sourcePoint" />
            <Array as="points">
              <mxPoint x="-540" y="140" />
              <mxPoint x="-652" y="140" />
            </Array>
          </mxGeometry>
        </mxCell>
        <mxCell id="-eRPkNMYUyGXU0NjvsWs-2" value="5d. execution" style="edgeLabel;html=1;align=center;verticalAlign=middle;resizable=0;points=[];" vertex="1" connectable="0" parent="-eRPkNMYUyGXU0NjvsWs-1">
          <mxGeometry x="0.6293" relative="1" as="geometry">
            <mxPoint as="offset" />
          </mxGeometry>
        </mxCell>
      </root>
    </mxGraphModel>
  </diagram>
</mxfile>
